<?xml version="1.0" encoding="UTF-8" standalone="no"?>
<!DOCTYPE svg PUBLIC "-//W3C//DTD SVG 1.1//EN" "http://www.w3.org/Graphics/SVG/1.1/DTD/svg11.dtd">
<svg width="100%" height="100%" viewBox="0 0 3500 2000" version="1.1" xmlns="http://www.w3.org/2000/svg" xmlns:xlink="http://www.w3.org/1999/xlink" xml:space="preserve" xmlns:serif="http://www.serif.com/" style="fill-rule:evenodd;clip-rule:evenodd;stroke-linejoin:round;stroke-miterlimit:2;">
    <g transform="matrix(1.938726,0.298231,-0.277361,1.803057,811.688448,-1111.754485)">
        <path d="M599.031,922.57C562.156,918.719 524.684,916.891 487.707,920.52C450.633,924.16 414.223,932.941 379.16,945.398C344.254,957.82 310.766,973.988 279.473,993.828C248.93,1013.18 219.242,1035.602 199.566,1066.512C181.504,1094.891 174.828,1131.512 195.207,1160.648C212.711,1185.691 242.84,1197 271.836,1202.25C307.586,1208.719 344.809,1208.852 381.027,1209.27C421.797,1209.75 462.582,1208.488 503.242,1205.5C584.457,1199.539 665.223,1186.82 744.32,1167.469C822.242,1148.398 899.688,1123.281 972.934,1090.398C1028.012,1065.672 1093.121,1019.988 1079.391,950.602C1072.422,915.328 1045.66,886.59 1015.02,869.551C981.105,850.68 941.906,842.75 904.043,836.148C826.961,822.73 748.133,819.988 670.32,828.211C592.168,836.469 515.199,855.578 442.758,886.102C425.203,893.5 408.086,901.691 390.953,909.988C380.758,914.941 389.676,930.129 399.84,925.199C433.469,908.898 468.871,896.391 504.418,885.051C539.973,873.711 576.258,864.711 613,858.172C686.379,845.102 761.496,841.609 835.75,848.191C872.703,851.469 909.617,857.129 945.688,865.879C979.355,874.039 1013.621,886.469 1037.43,912.789C1057.77,935.27 1067.102,965.801 1056.301,994.859C1046.52,1021.148 1022.43,1040.328 999.238,1054.461C970.055,1072.25 937.691,1084.609 905.879,1096.789C869.516,1110.711 832.582,1123.129 795.207,1134.051C720.383,1155.898 643.77,1171.922 566.395,1181.422C488.797,1190.949 410.422,1194.211 332.301,1191.02C302.051,1189.781 270.562,1188.602 242.203,1176.801C216.176,1165.98 196.676,1143.77 198.781,1114.25C201.121,1081.461 227.266,1052.961 251.336,1033.102C278.281,1010.871 309.52,992.809 340.988,977.828C405.016,947.352 476.289,929.5 547.074,925.281C564.453,924.238 581.676,924.32 599.031,925.691C601.051,925.852 601.004,922.77 599.031,922.57" style="fill:rgb(45,45,45);fill-rule:nonzero;"/>
    </g>
</svg>
