<?xml version="1.0" encoding="iso-8859-1"?>
<!-- Uploaded to: SVG Repo, www.svgrepo.com, Generator: SVG Repo Mixer Tools -->
<svg fill="#000000" height="800px" width="800px" version="1.1" id="Layer_1" xmlns="http://www.w3.org/2000/svg" xmlns:xlink="http://www.w3.org/1999/xlink" 
	 viewBox="0 0 512 512" xml:space="preserve">
<g>
	<g>
		<g>
			<path d="M501.551,373.551h-10.449v-47.02c0-5.77-4.679-10.449-10.449-10.449H464.98v-52.245
				c0-46.093-37.499-83.592-83.592-83.592h-94.041v-62.694h36.571c5.77,0,10.449-4.678,10.449-10.449V86.204
				c0-11.523-9.375-20.898-20.898-20.898H198.531c-11.523,0-20.898,9.375-20.898,20.898v20.898c0,5.771,4.678,10.449,10.449,10.449
				h36.571v62.694h-94.041c-46.093,0-83.592,37.499-83.592,83.592v52.245H31.347c-5.77,0-10.449,4.679-10.449,10.449v47.02H10.449
				C4.678,373.551,0,378.23,0,384v31.347c0,17.285,14.062,31.347,31.347,31.347h449.306c17.285,0,31.347-14.062,31.347-31.347V384
				C512,378.23,507.321,373.551,501.551,373.551z M198.531,96.653V86.204h114.939v10.449H198.531z M266.449,117.551v62.694h-20.898
				v-62.694H266.449z M67.918,263.837c0-34.569,28.124-62.694,62.694-62.694h104.49h41.796h104.49
				c34.569,0,62.694,28.124,62.694,62.694v52.245H67.918V263.837z M491.102,415.347c0,5.762-4.687,10.449-10.449,10.449H31.347
				c-5.762,0-10.449-4.687-10.449-10.449v-20.898h397.061v-20.898H41.796V336.98h428.408V384c0,5.771,4.679,10.449,10.449,10.449
				h10.449V415.347z"/>
			<path d="M88.816,279.51h20.898c0-23.046,18.75-41.796,41.796-41.796v-20.898C116.941,216.816,88.816,244.941,88.816,279.51z"/>
		</g>
	</g>
</g>
</svg>